<?xml version="1.0" standalone="no"?>
<!DOCTYPE svg PUBLIC "-//W3C//DTD SVG 20010904//EN"
 "http://www.w3.org/TR/2001/REC-SVG-20010904/DTD/svg10.dtd">
<svg version="1.0" xmlns="http://www.w3.org/2000/svg"
 width="300.000000pt" height="264.000000pt" viewBox="0 0 300.000000 264.000000"
 preserveAspectRatio="xMidYMid meet">
<metadata>
Created by potrace 1.10, written by Peter Selinger 2001-2011
</metadata>
<g transform="translate(0.000000,264.000000) scale(0.100000,-0.100000)"
fill="#000000" stroke="none">
<path d="M1438 2369 c-67 -95 -1222 -1811 -1244 -1847 -10 -17 -16 -34 -13
-37 3 -3 185 -28 405 -55 219 -28 410 -53 422 -55 16 -4 23 -2 20 6 -3 9 -136
29 -413 63 -224 28 -408 55 -408 59 0 5 254 385 564 845 310 460 595 883 632
939 61 93 87 116 87 80 0 -16 539 -2077 546 -2088 8 -14 -14 -12 -433 41 -354
45 -417 51 -402 36 5 -5 804 -106 835 -106 23 0 274 156 274 171 0 5 -2 9 -4
9 -5 0 -130 -81 -205 -131 -24 -17 -44 -29 -46 -27 -2 2 -10 30 -18 63 -57
225 -521 1996 -532 2030 -5 16 -3 15 12 -4 10 -14 294 -384 631 -823 336 -438
612 -802 612 -807 0 -7 -95 -72 -217 -147 -10 -7 -15 -15 -11 -19 7 -7 243
139 254 156 4 7 -844 1120 -1287 1691 -16 20 -17 19 -61 -43z"/>
<path d="M1400 2223 c-28 -66 -233 -594 -435 -1117 -30 -76 -55 -140 -57 -141
-2 -1 -145 -93 -318 -204 -277 -178 -395 -259 -325 -223 11 5 162 101 335 213
l315 202 280 -34 280 -34 1 -113 c0 -87 -3 -115 -14 -121 -8 -4 -12 -18 -10
-32 2 -18 9 -24 27 -24 34 0 50 29 28 53 -14 15 -17 39 -17 125 0 59 3 107 8
107 4 0 77 -9 162 -20 152 -20 218 -24 209 -15 -6 6 -306 45 -346 45 l-33 0 0
205 c0 125 -4 205 -10 205 -6 0 -8 -77 -7 -200 1 -128 -2 -200 -8 -200 -40 2
-526 67 -530 72 -3 2 40 121 96 264 275 707 409 1057 405 1061 -2 2 -18 -31
-36 -74z"/>
<path d="M1480 2248 c-1 -24 -3 -184 -6 -355 -3 -208 -1 -313 6 -313 7 0 10
122 10 355 0 195 -2 355 -5 355 -3 0 -5 -19 -5 -42z"/>
<path d="M1437 1519 c10 -10 -2 -89 -22 -141 -5 -12 -2 -18 8 -18 10 0 18 14
22 39 7 44 30 70 46 54 6 -6 6 -19 -1 -37 -5 -15 -10 -34 -10 -42 0 -16 36
-19 45 -4 3 6 -1 10 -9 10 -12 0 -13 5 -4 30 14 42 4 63 -27 58 -28 -6 -30 -1
-15 36 9 24 7 26 -17 26 -20 0 -24 -3 -16 -11z"/>
<path d="M1945 829 c29 -9 729 -99 769 -99 67 0 -38 17 -380 60 -391 50 -444
56 -389 39z"/>
<path d="M2335 551 c-3 -6 -1 -11 5 -11 8 0 10 -12 5 -38 -7 -46 12 -70 42
-54 11 7 24 7 36 0 37 -20 96 54 79 100 -8 23 -27 6 -24 -21 4 -32 -14 -67
-34 -67 -13 0 -15 7 -10 36 4 19 10 42 13 50 3 8 -1 14 -10 14 -9 0 -17 -14
-22 -37 -14 -74 -48 -87 -43 -16 2 38 0 48 -14 51 -9 2 -19 -2 -23 -7z"/>
<path d="M1090 471 c0 -5 4 -11 9 -13 5 -2 3 -32 -6 -71 -16 -73 -10 -96 24
-83 14 6 15 9 4 16 -12 7 -12 19 -2 70 7 34 15 68 18 76 4 10 -3 14 -21 14
-14 0 -26 -4 -26 -9z"/>
</g>
</svg>
